PathFileType	4	(X/Y/Z)	SUBJ26_3_walk_RCNL2025.trc
DataRate	CameraRate	NumFrames	NumMarkers	Units	OrigDataRate	OrigDataStartFrame	OrigNumFrames
100	100	9	25	mm	100	143	379
Frame#	Time	R_Shoulder			L_Shoulder			C7			J_Notch			R_Elbow			L_Elbow			R_Wrist			L_Wrist			R_Asis			L_Asis			Sacral			Thoracic			Sternum			R_Thigh_Lateral			R_Knee_Lateral			R_Shank_Lateral			R_Ankle_Lateral			R_Heel			R_Toe			L_Thigh_Lateral			L_Knee_Lateral			L_Shank_Lateral			L_Ankle_Lateral			L_Heel			L_Toe		
		X1	Y1	Z1	X2	Y2	Z2	X3	Y3	Z3	X4	Y4	Z4	X5	Y5	Z5	X6	Y6	Z6	X7	Y7	Z7	X8	Y8	Z8	X9	Y9	Z9	X10	Y10	Z10	X11	Y11	Z11	X12	Y12	Z12	X13	Y13	Z13	X14	Y14	Z14	X15	Y15	Z15	X16	Y16	Z16	X17	Y17	Z17	X18	Y18	Z18	X19	Y19	Z19	X20	Y20	Z20	X21	Y21	Z21	X22	Y22	Z22	X23	Y23	Z23	X24	Y24	Z24	X25	Y25	Z25
143	1.42000000	-761.573608	1314.887085	313.998047	-768.435730	1330.018799	-20.852467	-849.260925	1381.969360	159.622681	-702.024231	1285.384644	140.930405	-853.824890	998.878479	400.873810	-831.185974	1010.558960	-130.649490	-785.348724	755.283813	386.867950	-737.465240	784.213593	-159.549217	-736.996521	907.353882	277.293365	-753.997314	924.215149	-25.091488	-951.097839	926.065979	141.191467	-930.072754	1039.102295	143.699020	-660.569031	1020.997986	143.113998	-767.925354	575.301697	341.509216	-717.859863	440.766266	291.563812	-810.945679	327.805634	319.426971	-948.028748	140.772507	225.348770	-991.210144	161.323715	160.128571	-853.610840	65.920265	207.626678	-786.855713	607.338379	-56.863770	-788.258911	437.634399	23.967760	-796.562012	258.697754	-37.174541	-838.460083	56.245800	47.646832	-907.934998	37.070820	88.762512	-727.351257	40.337433	100.638901
144	1.43000000	-750.539124	1315.561401	314.376160	-755.237061	1330.239258	-20.710201	-837.082092	1382.219727	159.101120	-689.795837	1285.539673	141.594620	-844.347290	999.450134	400.249146	-813.307251	1010.444824	-131.375565	-776.338928	755.757202	386.258698	-714.262726	786.159729	-158.903885	-725.208191	908.245850	277.054260	-742.430725	923.890015	-25.074522	-939.275024	926.287659	141.625763	-918.168762	1039.401489	143.305542	-648.734863	1021.356750	143.830719	-749.425293	576.662842	341.362244	-694.799744	443.362366	291.634888	-783.340820	326.285492	319.996216	-910.821838	132.149139	227.006287	-954.663330	149.029510	161.017242	-811.869263	63.263298	211.940460	-777.450195	607.023987	-56.123486	-784.580383	437.491089	24.396051	-794.692810	258.437836	-36.839012	-838.329468	56.285767	47.751854	-907.829773	37.271118	88.778893	-727.161499	40.307919	100.838867
145	1.44000000	-739.563416	1316.014771	314.790039	-742.052795	1330.192017	-20.526228	-824.903198	1382.252808	158.590439	-677.580750	1285.476074	142.314957	-834.799133	999.847351	399.763275	-795.355164	1010.117188	-131.997757	-767.169128	756.066742	385.903091	-691.060364	787.999054	-158.108620	-713.315918	908.947815	276.844421	-730.877502	923.328491	-25.092043	-927.420959	926.254883	142.139587	-906.257385	1039.472290	143.017792	-636.871033	1021.552856	144.553848	-731.203552	577.903198	341.203583	-672.465698	445.784760	291.606079	-756.085754	324.676514	320.648895	-872.664673	123.200371	229.113739	-917.010803	136.302368	162.465469	-769.511597	60.724590	216.392715	-768.407349	606.565063	-55.394230	-780.977356	437.363434	24.804176	-792.891968	258.185577	-36.557678	-838.190491	56.326931	47.826088	-907.729004	37.476166	88.774536	-726.954529	40.293324	101.008080
146	1.45000000	-728.612793	1316.233398	315.233734	-728.881531	1329.869873	-20.287237	-812.718872	1382.067383	158.112869	-665.370911	1285.196411	143.079803	-825.152283	1000.058899	399.421692	-777.322510	1009.581238	-132.505951	-757.829071	756.198578	385.786255	-667.881134	789.721283	-157.164688	-701.324585	909.442993	276.686096	-719.306763	922.549255	-25.129807	-915.524719	925.991516	142.719803	-894.325500	1039.313965	142.849533	-624.986877	1021.599731	145.316437	-713.325745	578.983521	341.009552	-650.943054	447.961945	291.482513	-729.191895	322.931610	321.377075	-833.553345	114.104630	231.620743	-878.264771	123.369812	164.442413	-726.573303	58.449078	220.863770	-759.773621	606.007874	-54.718666	-777.466187	437.259979	25.174276	-791.191101	257.957581	-36.350254	-838.050476	56.376446	47.875324	-907.643860	37.697308	88.765091	-726.737488	40.291874	101.140038
147	1.46000000	-717.650391	1316.210327	315.700409	-715.725037	1329.270874	-19.984083	-800.528198	1381.661011	157.689117	-653.160889	1284.704468	143.875092	-815.385193	1000.077576	399.230255	-759.209106	1008.849060	-132.890076	-748.308746	756.147369	385.886200	-644.748962	791.316559	-156.071331	-689.241821	909.714294	276.585693	-707.706543	921.577393	-25.168068	-903.576233	925.517761	143.358383	-882.362488	1038.924805	142.810562	-613.086365	1021.502441	146.143127	-695.862610	579.857544	340.751892	-630.305908	449.823669	291.272125	-702.629761	320.997955	322.177063	-793.513062	105.067383	234.459335	-838.468994	110.497879	166.895416	-683.117126	56.579239	225.233444	-751.598877	605.394897	-54.129143	-774.071411	437.190247	25.494602	-789.632874	257.769379	-36.231712	-837.918701	56.444443	47.912838	-907.584473	37.953419	88.772156	-726.529846	40.297207	101.232269
148	1.47000000	-706.638184	1315.944214	316.182251	-702.586975	1328.399292	-19.612200	-788.334961	1381.030762	157.336365	-640.947937	1284.005737	144.684677	-805.480530	999.900879	399.193329	-741.021179	1007.937195	-133.140732	-738.599091	755.912994	386.177597	-621.691528	792.776886	-154.826637	-677.074280	909.748718	276.539886	-696.069397	920.446350	-25.187435	-891.565918	924.846558	144.052597	-870.362976	1038.304077	142.905991	-601.168518	1021.252869	147.047852	-678.890381	580.470764	340.398743	-610.611511	451.307770	290.985474	-676.334961	318.833069	323.048462	-752.614014	96.318260	237.547043	-797.699829	97.982834	169.747482	-639.246582	55.249840	229.385849	-743.928101	604.760315	-53.651920	-770.807251	437.165741	25.759501	-788.255310	257.634308	-36.208202	-837.805603	56.545338	47.958317	-907.555664	38.272720	88.819275	-726.365540	40.296528	101.287323
149	1.48000000	-695.540894	1315.437988	316.671387	-689.473328	1327.265503	-19.171783	-776.145325	1380.174683	157.066956	-628.729126	1283.107056	145.493042	-795.421326	999.531433	399.314026	-722.770081	1006.864380	-133.250488	-728.693481	755.497162	386.635757	-598.743774	794.098694	-153.428246	-664.825500	909.537292	276.539185	-684.385498	919.193787	-25.172281	-879.485107	923.982361	144.804398	-858.326782	1037.453003	143.136368	-589.225647	1020.829773	148.034485	-662.490784	580.763123	339.918304	-591.890625	452.365784	290.634216	-650.226013	316.423767	323.989868	-710.988953	88.101509	240.789139	-756.081238	86.136238	172.898666	-595.120361	54.580479	233.217667	-736.786316	604.130066	-53.309891	-767.660095	437.197723	25.968580	-787.074524	257.565430	-36.273373	-837.720459	56.698074	48.035240	-907.555542	38.691963	88.931541	-726.285889	40.272995	101.312973
150	1.49000000	-684.327820	1314.698486	317.161194	-676.393127	1325.886719	-18.667816	-763.963074	1379.093018	156.887451	-616.497864	1282.014404	146.288361	-785.190613	998.975159	399.594147	-704.473022	1005.649780	-133.215210	-718.589722	754.902039	387.238922	-575.949554	795.286499	-151.873844	-652.495239	909.071350	276.570709	-672.646912	917.854614	-25.111183	-867.326660	922.922791	145.618271	-846.256714	1036.376221	143.500153	-577.241150	1020.203796	149.099991	-646.747620	580.674622	339.285889	-574.136902	452.964691	290.228973	-624.233582	313.802338	324.991089	-668.849487	80.659271	244.081940	-713.823242	75.260284	176.232803	-550.963196	54.666775	236.649277	-730.160522	603.526978	-53.117828	-764.577820	437.293915	26.127302	-786.069641	257.577881	-36.407330	-837.667542	56.925369	48.167477	-907.575867	39.252434	89.137123	-726.307495	40.215847	101.320435
151	1.50000000	-672.973938	1313.735474	317.648071	-663.356201	1324.283691	-18.107536	-751.785522	1377.790161	156.798828	-604.244446	1280.732666	147.063263	-774.773865	998.239990	400.033386	-686.153748	1004.312866	-133.033066	-708.290192	754.131805	387.969864	-553.357941	796.354462	-150.161583	-640.078918	908.339905	276.624542	-660.851440	916.457642	-24.997360	-855.085144	921.663086	146.499680	-834.153687	1035.081909	143.996124	-565.192566	1019.345337	150.237076	-631.734253	580.150513	338.495117	-557.299622	453.088165	289.774872	-598.335693	311.051910	326.024872	-626.497498	74.210014	247.318970	-671.252991	65.616577	179.626404	-507.071411	55.571949	239.636566	-723.984192	602.973633	-53.075188	-761.471069	437.458160	26.248732	-785.176941	257.689728	-36.579285	-837.644287	57.252468	48.375492	-907.601562	39.993252	89.465775	-726.399353	40.129814	101.321091
